<svg xmlns="http://www.w3.org/2000/svg" version="1.1" xmlns:xlink="http://www.w3.org/1999/xlink" xmlns:svgjs="http://svgjs.dev/svgjs" width="1440" height="560" preserveAspectRatio="none" viewBox="0 0 1440 560"><g mask="url(&quot;#SvgjsMask1275&quot;)" fill="none"><rect width="1440" height="560" x="0" y="0" fill="#0e2a47"></rect><path d="M1043.62 485.76 a110.39 110.39 0 1 0 220.78 0 a110.39 110.39 0 1 0 -220.78 0z" fill="rgba(28, 83, 142, 0.4)" class="triangle-float3"></path><path d="M27.44 23.96 a137.55 137.55 0 1 0 275.1 0 a137.55 137.55 0 1 0 -275.1 0z" fill="rgba(28, 83, 142, 0.4)" class="triangle-float3"></path><path d="M-56.38 35.73 a158.48 158.48 0 1 0 316.96 0 a158.48 158.48 0 1 0 -316.96 0z" fill="rgba(28, 83, 142, 0.4)" class="triangle-float3"></path><path d="M1177.15 270.41 a123.26 123.26 0 1 0 246.52 0 a123.26 123.26 0 1 0 -246.52 0z" fill="rgba(28, 83, 142, 0.4)" class="triangle-float1"></path><path d="M838.01 164.19 a133.89 133.89 0 1 0 267.78 0 a133.89 133.89 0 1 0 -267.78 0z" fill="rgba(28, 83, 142, 0.4)" class="triangle-float2"></path><path d="M177.73 339.37 a147.37 147.37 0 1 0 294.74 0 a147.37 147.37 0 1 0 -294.74 0z" fill="rgba(28, 83, 142, 0.4)" class="triangle-float3"></path></g><defs><mask id="SvgjsMask1275"><rect width="1440" height="560" fill="#ffffff"></rect></mask><style>
                @keyframes float1 {
                    0%{transform: translate(0, 0)}
                    50%{transform: translate(-10px, 0)}
                    100%{transform: translate(0, 0)}
                }

                .triangle-float1 {
                    animation: float1 5s infinite;
                }

                @keyframes float2 {
                    0%{transform: translate(0, 0)}
                    50%{transform: translate(-5px, -5px)}
                    100%{transform: translate(0, 0)}
                }

                .triangle-float2 {
                    animation: float2 4s infinite;
                }

                @keyframes float3 {
                    0%{transform: translate(0, 0)}
                    50%{transform: translate(0, -10px)}
                    100%{transform: translate(0, 0)}
                }

                .triangle-float3 {
                    animation: float3 6s infinite;
                }
            </style></defs></svg>